<svg xmlns="http://www.w3.org/2000/svg" width="50" height="50" viewBox="0 0 24 24">
  <path fill="#464646" d="M12.005 2.004C6.486 2.004 2 6.488 2 12.007a9.93 9.93 0 001.64 5.42L2 22l4.684-1.61a9.977 9.977 0 005.321 1.553h.001c5.519 0 10.004-4.484 10.004-10.003 0-5.519-4.484-10.003-10.004-10.003zm5.661 14.322c-.243.68-1.196 1.306-1.936 1.49-.519.13-1.187.234-3.441-.73-2.883-1.18-4.741-4.073-4.884-4.27-.143-.195-1.168-1.559-1.168-2.971 0-1.412.742-2.11 1.005-2.398.263-.287.576-.36.77-.36h.554c.18 0 .421-.034.656.503.26.57.894 1.97.97 2.11.076.14.126.303.025.485-.1.183-.15.296-.297.453-.148.157-.313.353-.448.474-.15.14-.303.293-.13.575.173.287.769 1.262 1.655 2.043 1.14.985 2.098 1.288 2.387 1.43.29.143.46.12.63-.073.173-.192.725-.843.917-1.13.195-.287.384-.24.65-.144.267.097 1.688.796 1.975.943.287.148.48.22.554.344.075.122.075.703-.167 1.384z"/>
</svg>
